<mxfile host="65bd71144e">
    <diagram id="4MJR8vstb-aWVjV9hUDR" name="Page-1">
        <mxGraphModel dx="458" dy="1729" grid="1" gridSize="10" guides="1" tooltips="1" connect="1" arrows="1" fold="1" page="1" pageScale="1" pageWidth="850" pageHeight="1100" math="0" shadow="0">
            <root>
                <mxCell id="0"/>
                <mxCell id="1" parent="0"/>
                <mxCell id="2" value="" style="rounded=0;whiteSpace=wrap;html=1;labelBackgroundColor=#E6E6E6;fontFamily=Courier New;fontSize=12;fontColor=none;noLabel=1;" vertex="1" parent="1">
                    <mxGeometry width="460" height="180" as="geometry"/>
                </mxCell>
                <mxCell id="3" value="" style="rounded=1;whiteSpace=wrap;html=1;fillColor=#f5f5f5;fontColor=#333333;strokeColor=#666666;" vertex="1" parent="1">
                    <mxGeometry x="305" y="72" width="70" height="90" as="geometry"/>
                </mxCell>
                <mxCell id="4" value="" style="rounded=1;whiteSpace=wrap;html=1;fillColor=#1A1A1A;fontColor=#333333;strokeColor=#666666;" vertex="1" parent="1">
                    <mxGeometry x="305" y="62" width="70" height="90" as="geometry"/>
                </mxCell>
                <mxCell id="5" value="" style="verticalLabelPosition=bottom;shadow=0;dashed=0;align=center;html=1;verticalAlign=top;shape=mxgraph.electrical.opto_electronics.7_segment_display_with_dp;pointerEvents=1;rounded=0;fillColor=#666666;strokeColor=#666666;fontColor=#333333;" vertex="1" parent="1">
                    <mxGeometry x="313.55000000000007" y="67" width="54.9" height="80" as="geometry"/>
                </mxCell>
                <mxCell id="6" value="input" style="text;html=1;align=center;verticalAlign=middle;resizable=0;points=[];autosize=1;strokeColor=none;fillColor=none;fontSize=12;fontFamily=Courier New;fontColor=#1A1A1A;" vertex="1" parent="1">
                    <mxGeometry x="92" y="22" width="60" height="30" as="geometry"/>
                </mxCell>
                <mxCell id="7" value="output" style="text;html=1;align=center;verticalAlign=middle;resizable=0;points=[];autosize=1;strokeColor=none;fillColor=none;fontSize=12;fontFamily=Courier New;fontColor=#1A1A1A;" vertex="1" parent="1">
                    <mxGeometry x="345" y="12" width="70" height="30" as="geometry"/>
                </mxCell>
                <mxCell id="8" value="" style="rounded=1;whiteSpace=wrap;html=1;fillColor=#f5f5f5;fontColor=#333333;strokeColor=#666666;" vertex="1" parent="1">
                    <mxGeometry x="375" y="72" width="70" height="90" as="geometry"/>
                </mxCell>
                <mxCell id="9" value="" style="rounded=1;whiteSpace=wrap;html=1;fillColor=#1A1A1A;fontColor=#333333;strokeColor=#666666;" vertex="1" parent="1">
                    <mxGeometry x="375" y="62" width="70" height="90" as="geometry"/>
                </mxCell>
                <mxCell id="10" value="" style="verticalLabelPosition=bottom;shadow=0;dashed=0;align=center;html=1;verticalAlign=top;shape=mxgraph.electrical.opto_electronics.7_segment_display_with_dp;pointerEvents=1;rounded=0;fillColor=#666666;strokeColor=#666666;fontColor=#333333;" vertex="1" parent="1">
                    <mxGeometry x="383.55000000000007" y="67" width="54.9" height="80" as="geometry"/>
                </mxCell>
                <mxCell id="11" value="&lt;div style=&quot;font-size: 13px;&quot;&gt;&lt;br&gt;&lt;/div&gt;&lt;div style=&quot;font-size: 13px;&quot;&gt;message &amp;lt;=&amp;nbsp;&lt;font style=&quot;font-size: 13px;&quot; color=&quot;#9999ff&quot;&gt;&lt;b&gt;set_message&lt;/b&gt;&lt;/font&gt;(&quot;hi&quot;);&lt;br&gt;&lt;/div&gt;&lt;div style=&quot;font-size: 13px;&quot;&gt;&lt;br&gt;&lt;/div&gt;" style="text;html=1;align=center;verticalAlign=middle;resizable=0;points=[];autosize=1;strokeColor=none;fillColor=none;fontSize=12;fontFamily=Courier New;fontColor=#1A1A1A;rounded=1;labelBackgroundColor=#E6E6E6;labelBorderColor=default;" vertex="1" parent="1">
                    <mxGeometry y="76.5" width="250" height="60" as="geometry"/>
                </mxCell>
                <mxCell id="12" value="" style="endArrow=classic;html=1;fontFamily=Courier New;fontSize=12;fontColor=#9999FF;fillColor=#f8cecc;strokeColor=#b85450;strokeWidth=2;" edge="1" parent="1">
                    <mxGeometry width="50" height="50" relative="1" as="geometry">
                        <mxPoint x="255" y="106.23999999999978" as="sourcePoint"/>
                        <mxPoint x="295" y="106" as="targetPoint"/>
                    </mxGeometry>
                </mxCell>
                <mxCell id="13" value="" style="shape=hexagon;perimeter=hexagonPerimeter2;whiteSpace=wrap;html=1;fixedSize=1;rounded=0;labelBackgroundColor=#E6E6E6;strokeColor=#990000;fontFamily=Courier New;fontSize=12;fontColor=#9999FF;fillColor=#FF6666;rotation=98;size=10;" vertex="1" parent="1">
                    <mxGeometry x="303" y="116.60000000000002" width="32" height="15" as="geometry"/>
                </mxCell>
                <mxCell id="14" value="" style="shape=hexagon;perimeter=hexagonPerimeter2;whiteSpace=wrap;html=1;fixedSize=1;rounded=0;labelBackgroundColor=#E6E6E6;strokeColor=#990000;fontFamily=Courier New;fontSize=12;fontColor=#9999FF;fillColor=#FF6666;rotation=98;size=10;" vertex="1" parent="1">
                    <mxGeometry x="308" y="82.5" width="32" height="15" as="geometry"/>
                </mxCell>
                <mxCell id="15" value="" style="shape=hexagon;perimeter=hexagonPerimeter2;whiteSpace=wrap;html=1;fixedSize=1;rounded=0;labelBackgroundColor=#E6E6E6;strokeColor=#990000;fontFamily=Courier New;fontSize=12;fontColor=#9999FF;fillColor=#FF6666;rotation=98;size=10;" vertex="1" parent="1">
                    <mxGeometry x="339" y="116.60000000000002" width="32" height="15" as="geometry"/>
                </mxCell>
                <mxCell id="16" value="" style="shape=hexagon;perimeter=hexagonPerimeter2;whiteSpace=wrap;html=1;fixedSize=1;rounded=0;labelBackgroundColor=#E6E6E6;strokeColor=#990000;fontFamily=Courier New;fontSize=12;fontColor=#9999FF;fillColor=#FF6666;rotation=357;size=10;" vertex="1" parent="1">
                    <mxGeometry x="320.5" y="99.5" width="38" height="14" as="geometry"/>
                </mxCell>
                <mxCell id="17" value="" style="shape=hexagon;perimeter=hexagonPerimeter2;whiteSpace=wrap;html=1;fixedSize=1;rounded=0;labelBackgroundColor=#E6E6E6;strokeColor=#990000;fontFamily=Courier New;fontSize=12;fontColor=#9999FF;fillColor=#FF6666;rotation=98;size=10;" vertex="1" parent="1">
                    <mxGeometry x="413" y="82.5" width="32" height="15" as="geometry"/>
                </mxCell>
                <mxCell id="18" value="" style="shape=hexagon;perimeter=hexagonPerimeter2;whiteSpace=wrap;html=1;fixedSize=1;rounded=0;labelBackgroundColor=#E6E6E6;strokeColor=#990000;fontFamily=Courier New;fontSize=12;fontColor=#9999FF;fillColor=#FF6666;rotation=98;size=10;" vertex="1" parent="1">
                    <mxGeometry x="408.45" y="116.60000000000002" width="32" height="15" as="geometry"/>
                </mxCell>
            </root>
        </mxGraphModel>
    </diagram>
</mxfile>